<?xml version="1.0" standalone="no"?>
<!DOCTYPE svg PUBLIC "-//W3C//DTD SVG 20010904//EN"
 "http://www.w3.org/TR/2001/REC-SVG-20010904/DTD/svg10.dtd">
<svg version="1.0" xmlns="http://www.w3.org/2000/svg"
 width="500.000000pt" height="500.000000pt" viewBox="0 0 500.000000 500.000000"
 preserveAspectRatio="xMidYMid meet">
<metadata>
Created by potrace 1.16, written by Peter Selinger 2001-2019
</metadata>
<g transform="translate(0.000000,500.000000) scale(0.100000,-0.100000)"
fill="#000000" stroke="none">
<path d="M1053 3798 c70 -84 116 -181 134 -281 11 -66 9 -327 -3 -447 -17
-157 -19 -350 -4 -415 38 -174 142 -321 276 -391 30 -16 54 -30 54 -32 0 -1
-12 -15 -26 -30 -14 -15 -41 -59 -60 -99 -52 -109 -61 -231 -34 -473 13 -122
15 -211 6 -260 -15 -83 -19 -96 -37 -122 -37 -52 -38 -52 170 -83 59 -9 170
-16 257 -16 166 0 265 18 372 67 29 13 55 24 58 24 8 0 147 96 174 121 14 12
44 40 67 62 l42 40 68 -63 c129 -119 257 -190 412 -230 143 -36 414 -28 638
20 l51 11 -30 58 c-37 72 -46 186 -28 376 17 192 18 303 4 363 -17 69 -57 155
-89 194 -30 35 -31 46 -7 55 9 4 43 24 75 45 102 69 190 205 222 341 18 77 20
252 5 392 -6 55 -11 186 -11 290 0 263 13 310 139 490 l33 48 -103 -6 c-282
-14 -597 -218 -902 -582 -148 -176 -275 -349 -366 -495 -29 -47 -59 -96 -68
-110 -9 -14 -17 -27 -17 -30 -1 -12 -24 -44 -27 -40 -3 3 -18 27 -34 54 -16
28 -39 66 -51 85 -13 20 -26 43 -30 50 -4 8 -27 45 -52 81 -107 155 -135 195
-140 200 -3 3 -21 25 -40 50 -363 475 -742 740 -1058 740 l-85 0 45 -52z m614
-602 c140 -151 261 -300 343 -421 18 -27 36 -52 39 -55 3 -3 11 -14 18 -25 6
-11 38 -63 71 -115 33 -52 72 -117 87 -145 15 -27 31 -54 35 -60 5 -5 24 -42
44 -82 l36 -71 0 -274 0 -274 -37 -35 c-134 -126 -246 -175 -424 -186 -151 -9
-155 -7 -157 64 -1 32 -9 112 -17 178 -20 161 -19 221 5 274 20 42 141 171
162 171 5 0 22 8 36 18 24 16 104 49 204 83 l36 12 -35 56 c-20 31 -41 65 -47
76 -32 59 -34 60 -168 73 -191 19 -294 60 -365 146 -47 57 -56 107 -49 268 3
79 8 216 12 305 l6 163 59 -46 c32 -26 80 -70 106 -98z m1848 -315 c8 -168 2
-206 -44 -273 -31 -43 -99 -91 -161 -113 -52 -18 -221 -45 -284 -45 -42 0 -47
-3 -76 -44 -16 -25 -30 -47 -30 -50 0 -3 -13 -25 -30 -49 -16 -25 -30 -47 -30
-50 0 -3 30 -15 68 -27 120 -38 210 -90 287 -165 101 -99 110 -140 80 -380 -8
-66 -15 -144 -16 -173 -2 -47 -5 -53 -27 -59 -35 -8 -228 5 -271 19 -109 35
-200 88 -283 167 l-38 35 0 275 0 274 61 115 c33 64 73 135 90 159 16 24 29
46 29 49 0 2 37 59 83 126 45 66 89 131 98 145 76 114 314 391 390 453 30 25
61 51 69 59 13 13 16 -3 22 -140 3 -85 9 -223 13 -308z"/>
</g>
</svg>
